<svg id="Camada_1" data-name="Camada 1" xmlns="http://www.w3.org/2000/svg" xmlns:xlink="http://www.w3.org/1999/xlink" viewBox="0 0 160.68 20"><defs><style>.cls-1{fill:url(#Gradiente_sem_nome);}.cls-2{fill:url(#Gradiente_sem_nome_2);}.cls-3{font-size:22px;font-family:Impact;}.cls-4{letter-spacing:-0.02em;}</style><linearGradient id="Gradiente_sem_nome" x1="-2.47" y1="2419.15" x2="19.41" y2="2419.15" gradientTransform="translate(0 -2414)" gradientUnits="userSpaceOnUse"><stop offset="0" stop-color="#6aff73"/><stop offset="1" stop-color="#1e9a5c"/></linearGradient><linearGradient id="Gradiente_sem_nome_2" x1="1.64" y1="2426.8" x2="17.96" y2="2426.8" xlink:href="#Gradiente_sem_nome"/></defs><polygon class="cls-1" points="1.72 10.2 9.77 3.1 17.93 10.2 17.93 10.2 19.66 8.6 11.49 1.6 11.49 1.6 9.77 0.1 0 8.6 1.72 10.1 1.72 10.2"/><polygon class="cls-2" points="9.77 5.7 8.05 7.2 14.6 12.9 13.1 14.2 8.28 10 6.55 8.5 4.83 10.1 3.45 11.3 2.18 12.3 1.61 12.8 3.33 14.3 3.33 14.3 9.77 19.9 9.77 19.9 11.49 18.4 11.49 18.4 5.06 12.8 6.55 11.5 12.99 17.1 12.99 17.1 13.79 16.4 14.71 15.6 14.71 15.6 17.93 12.8 17.47 12.4 9.77 5.7"/><text class="cls-3" transform="translate(25.11 18.29)">F2 TECNO<tspan class="cls-4" x="79.07" y="0">L</tspan><tspan x="87.11" y="0">OGIA</tspan></text></svg>