<svg id="Camada_1" data-name="Camada 1" xmlns="http://www.w3.org/2000/svg" xmlns:xlink="http://www.w3.org/1999/xlink" viewBox="0 0 160.68 20"><defs><style>.cls-1{fill:url(#Gradiente_sem_nome);}.cls-2{fill:url(#Gradiente_sem_nome_2);}.cls-3{fill:#121111;}</style><linearGradient id="Gradiente_sem_nome" x1="-2.47" y1="2419.15" x2="19.41" y2="2419.15" gradientTransform="translate(0 -2414)" gradientUnits="userSpaceOnUse"><stop offset="0" stop-color="#6aff73"/><stop offset="1" stop-color="#1e9a5c"/></linearGradient><linearGradient id="Gradiente_sem_nome_2" x1="1.64" y1="2426.8" x2="17.96" y2="2426.8" xlink:href="#Gradiente_sem_nome"/></defs><polygon class="cls-1" points="1.72 10.2 9.77 3.1 17.93 10.2 17.93 10.2 19.66 8.6 11.49 1.6 11.49 1.6 9.77 0.1 0 8.6 1.72 10.1 1.72 10.2"/><polygon class="cls-2" points="9.77 5.7 8.05 7.2 14.6 12.9 13.1 14.2 8.28 10 6.55 8.5 4.83 10.1 3.45 11.3 2.18 12.3 1.61 12.8 3.33 14.3 3.33 14.3 9.77 19.9 9.77 19.9 11.49 18.4 11.49 18.4 5.06 12.8 6.55 11.5 12.99 17.1 12.99 17.1 13.79 16.4 14.71 15.6 14.71 15.6 17.93 12.8 17.47 12.4 9.77 5.7"/><polygon class="cls-3" points="25.35 4.5 32.36 4.5 32.36 1.57 21.11 1.57 21.11 15.26 25.35 15.26 25.35 9.72 29.92 9.72 29.92 6.79 25.35 6.79 25.35 4.5"/><polygon class="cls-3" points="62.69 1.57 49.81 1.57 49.81 4.5 54.21 4.5 54.21 15.26 58.29 15.26 58.29 4.5 62.69 4.5 62.69 1.57"/><path class="cls-3" d="M65.63,5.64a5.44,5.44,0,0,0-4.41,1.47,4.41,4.41,0,0,0-1.63,3.59,4.46,4.46,0,0,0,1.31,3.1A7.15,7.15,0,0,0,66,15.59a6,6,0,0,0,4.24-1.31,3.21,3.21,0,0,0,1.3-1.95H67.74a2.25,2.25,0,0,1-1.79,1c-1.63,0-2.44-.66-2.44-2.12h8.15V10.7a6.66,6.66,0,0,0-.82-2.94A6.37,6.37,0,0,0,65.63,5.64ZM63.51,9.23a1.64,1.64,0,0,1,.65-1.14,2.73,2.73,0,0,1,1.63-.49,2,2,0,0,1,2.12,1.63Z"/><path class="cls-3" d="M74.43,7.27a4.4,4.4,0,0,0-.33,6.2l.33.33a6.47,6.47,0,0,0,7.17,1.14V12a4.55,4.55,0,0,1-1.95.65,3.13,3.13,0,0,1-2-.65,2.09,2.09,0,0,1-.33-2.93c0-.17.17-.17.33-.33a2.6,2.6,0,0,1,2-.65,2.83,2.83,0,0,1,1.95.65V6.13a6.64,6.64,0,0,0-2.44-.49A6.49,6.49,0,0,0,74.43,7.27Z"/><path class="cls-3" d="M93.51,6.46a5.53,5.53,0,0,0-2.78-.82,5.29,5.29,0,0,0-2.28.49,3.48,3.48,0,0,0-1.3,1V5.81H83.23V15.1h3.92V10.21a2.27,2.27,0,0,1,.49-1.47,2.66,2.66,0,0,1,1.46-.49,1.79,1.79,0,0,1,1.47.65,2.93,2.93,0,0,1,.33,1.63V15.1h3.91V9.23A3.74,3.74,0,0,0,93.51,6.46Z"/><rect class="cls-3" x="109.48" y="0.1" width="3.91" height="15"/><path class="cls-3" d="M144.38,1.4a2.3,2.3,0,0,0-1.47.49,1.76,1.76,0,0,0-.33,2.29c.17.16.17.32.33.32a2.7,2.7,0,0,0,3.1,0,1.75,1.75,0,0,0,.32-2.28c-.16-.16-.16-.33-.32-.33A3.2,3.2,0,0,0,144.38,1.4Z"/><rect class="cls-3" x="142.42" y="5.97" width="3.91" height="9.29"/><path class="cls-3" d="M156.6,5.81v1A4.8,4.8,0,0,0,155.46,6a3.25,3.25,0,0,0-2.12-.33,5.89,5.89,0,0,0-3.58,1.14,4.81,4.81,0,0,0-2,3.75,4.34,4.34,0,0,0,2,3.75,5.53,5.53,0,0,0,3.58,1.15,5.9,5.9,0,0,0,2.29-.49,3,3,0,0,0,1.14-.82v1h3.91V5.81Zm-1.63,6a2.56,2.56,0,0,1-1.46.49,2.27,2.27,0,0,1-1.47-.49,2,2,0,0,1-.65-1.31,1.49,1.49,0,0,1,.65-1.3,2.61,2.61,0,0,1,1.47-.49,2.22,2.22,0,0,1,1.46.49,2,2,0,0,1,.66,1.3,2,2,0,0,1-.66,1.31Z"/><path class="cls-3" d="M137,7a3,3,0,0,0-1.14-.82,4.6,4.6,0,0,0-2.12-.49A5.79,5.79,0,0,0,130,7a4.72,4.72,0,0,0-1.63,3.75,8.27,8.27,0,0,0,.32,2,4.93,4.93,0,0,0,2,2.12,6.42,6.42,0,0,0,2.94.66,5.29,5.29,0,0,0,2.28-.49,3,3,0,0,0,1.14-.82v.82a2.56,2.56,0,0,1-.49,1.46,3,3,0,0,1-2,.82,3,3,0,0,1-1.3-.33c-.16-.16-.49-.32-.49-.65h-4.4l.16.49A4,4,0,0,0,130,18.52a6.54,6.54,0,0,0,4.56,1.31A7,7,0,0,0,139,18.69a4.25,4.25,0,0,0,1.63-2.12,8.11,8.11,0,0,0,.16-2V5.81H137V7Zm-1.47,4.89a2.61,2.61,0,0,1-1.47.49,2.24,2.24,0,0,1-1.46-.49,2,2,0,0,1-.66-1.31,1.5,1.5,0,0,1,.66-1.3,2.69,2.69,0,0,1,3.09,0,2,2,0,0,1,.66,1.3A2.3,2.3,0,0,1,135.57,11.84Z"/><path class="cls-3" d="M120.9,5a5.74,5.74,0,0,0-6,5.06,6.11,6.11,0,0,0,12.06,0A5.62,5.62,0,0,0,120.9,5Zm1.47,6.36a2.7,2.7,0,0,1-3.1,0,2,2,0,0,1-.65-1.3,1.49,1.49,0,0,1,.65-1.31,2.7,2.7,0,0,1,3.1,0,1.75,1.75,0,0,1,.32,2.28A.35.35,0,0,1,122.37,11.35Z"/><path class="cls-3" d="M102,5a5.76,5.76,0,0,0-6,5.06,6.12,6.12,0,0,0,7,5,6.26,6.26,0,0,0,5.06-5A5.53,5.53,0,0,0,102,5Zm1.47,6.36a2.61,2.61,0,0,1-1.47.49,2.24,2.24,0,0,1-1.46-.49,2,2,0,0,1-.66-1.3,1.5,1.5,0,0,1,.66-1.31,2.69,2.69,0,0,1,3.09,0,1.74,1.74,0,0,1,.33,2.28C103.78,11.19,103.61,11.35,103.45,11.35Z"/><path class="cls-3" d="M44.43,8.25a4.37,4.37,0,0,0,.81-2.44,3.7,3.7,0,0,0-1.63-3.1,6.6,6.6,0,0,0-4.23-1.14A7,7,0,0,0,35.3,2.71,5.13,5.13,0,0,0,33.18,6.3L36.93,7a3.93,3.93,0,0,1,.81-2.28,2.67,2.67,0,0,1,3.1,0A2,2,0,0,1,41.49,6a1.46,1.46,0,0,1-.65,1.3c-.32.33-8.64,5.06-9.13,5.38a1,1,0,0,0-.49,1,1.49,1.49,0,0,0,.49,1.14,1.85,1.85,0,0,0,1.31.49H44.59V12h-5.7A41.17,41.17,0,0,0,44.43,8.25Z"/></svg>